<svg xmlns="http://www.w3.org/2000/svg" width="160" height="235" viewBox="0 0 160 235" version="1.1"><path d="M 68.250 3.746 C 74.163 3.923, 83.838 3.923, 89.750 3.746 L 100.500 3.425 79 3.425 L 57.500 3.425 68.250 3.746 M 14.654 6.250 L 15.118 7 13.559 7.125 C 9.884 7.420, 9.499 7.550, 9.485 8.500 C 9.476 9.050, 9.108 10.070, 8.666 10.766 L 7.862 12.033 6.942 11.464 L 6.023 10.896 6.681 12.612 L 7.340 14.328 6.263 13.663 L 5.187 12.997 5.751 15.155 L 6.315 17.313 5.408 16.752 L 4.500 16.191 5 116.845 L 5.500 217.500 6.727 219.642 C 7.403 220.820, 9.361 222.967, 11.080 224.413 L 14.204 227.043 78.522 226.771 L 142.840 226.500 145.549 224 L 148.258 221.500 149.629 218.282 L 151 215.064 151 116.500 L 151 17.936 149.629 14.718 L 148.258 11.500 145.549 9 L 142.840 6.500 78.515 6 L 14.190 5.500 14.654 6.250 M 130.456 15.255 C 130.139 16.080, 130.020 18.947, 130.190 21.627 L 130.500 26.500 132.808 26.827 L 135.116 27.154 137.558 25.554 C 138.901 24.674, 140 23.514, 140 22.977 L 140 22 138 24 L 136 26 133.448 26 L 130.895 26 131.198 20.750 L 131.500 15.500 134.493 15.721 L 137.485 15.943 138.743 17.663 L 140 19.382 140 18.314 C 140 16.671, 137.636 15.077, 134.170 14.384 L 131.031 13.756 130.456 15.255 M 14 21 L 14 27 17.066 27 C 18.752 27, 21.002 26.534, 22.066 25.965 L 24 24.930 24 23.810 L 24 22.690 22.171 24.345 L 20.343 26 17.671 26 L 15 26 15 21 L 15 16 18.450 16 L 21.901 16 22.920 17.750 L 23.939 19.500 23.970 18.450 C 23.986 17.872, 23.460 16.860, 22.800 16.200 L 21.600 15 17.800 15 L 14 15 14 21 M 36.200 21.200 L 35 22.400 35 26.200 L 35 30 33.200 30 C 32.210 30, 30.860 30.540, 30.200 31.200 L 29 32.400 29 35.545 L 29 38.690 30.829 40.345 L 32.657 42 34.394 42 C 35.350 42, 37.002 41.534, 38.066 40.965 L 40 39.930 40 41.406 C 40 42.218, 39.550 43.160, 39 43.500 C 38.450 43.840, 38 44.541, 38 45.059 L 38 46 42 46 L 46 46 46 45.059 C 46 44.541, 45.550 43.840, 45 43.500 C 44.450 43.160, 44 42.470, 44 41.966 L 44 41.050 47.043 41.659 L 50.087 42.267 52.543 39.959 L 55 37.651 55 35.026 L 55 32.400 53.800 31.200 L 52.600 30 50.363 30 L 48.126 30 48.692 26.508 L 49.259 23.017 48.007 21.508 L 46.755 20 42.078 20 L 37.400 20 36.200 21.200 M 58.856 21.675 L 57.213 22.106 56.689 24.803 L 56.165 27.500 57.082 27.833 L 58 28.167 58 30.190 L 58 32.214 59.417 31.670 L 60.834 31.126 61.417 32.645 C 61.738 33.480, 62 35.686, 62 37.547 L 62 40.930 64.083 42.044 L 66.165 43.159 64.605 44.329 L 63.044 45.500 64.465 54.859 C 66.123 65.787, 66.549 66.629, 67.517 60.899 L 68.233 56.664 69.073 58.165 L 69.913 59.666 73.035 59.208 L 76.157 58.750 77.203 56.453 L 78.250 54.156 77.155 51.016 L 76.061 47.876 77.030 45.938 C 77.564 44.872, 78.450 43.106, 79 42.014 C 79.550 40.921, 80 39.206, 80 38.202 L 80 36.376 76.921 34.100 C 73.079 31.259, 73.616 30.524, 78.149 32.418 L 81.605 33.862 83.053 32.946 C 83.849 32.443, 85.097 32.024, 85.827 32.015 L 87.154 32 90.077 34.923 L 93 37.846 93 39.806 L 93 41.767 91 42.290 L 89 42.813 89 44.906 L 89 47 91 47 L 93 47 93 50.550 L 93 54.099 91.594 56.818 L 90.188 59.537 91.594 61.460 L 93 63.382 93.132 60.941 L 93.263 58.500 94 62 L 94.737 65.500 94.868 62.691 L 95 59.882 95.778 60.363 L 96.556 60.844 98.570 59.172 L 100.584 57.500 101.887 53.665 L 103.191 49.830 102.552 46.423 L 101.912 43.016 99.493 42.409 L 97.073 41.802 94.853 36.888 L 92.632 31.974 88.249 29.406 L 83.866 26.837 82.183 27.534 C 81.257 27.917, 78.813 28.446, 76.750 28.709 L 73 29.186 73.015 27.343 C 73.024 26.329, 73.450 24.837, 73.963 24.026 L 74.894 22.553 73.697 21.792 C 73.039 21.373, 71.311 21.024, 69.857 21.015 L 67.214 21 66.663 22.436 L 66.112 23.872 69.144 26.837 L 72.177 29.801 71.053 31.901 C 69.762 34.313, 69.553 34.367, 66.927 32.961 L 64.985 31.922 65.507 28.961 L 66.029 26 64.584 26 L 63.139 26 62.820 23.828 L 62.500 21.657 61.500 21.451 C 60.950 21.337, 59.760 21.438, 58.856 21.675 M 17.036 30.456 L 15.828 31.912 16.473 32.956 L 17.118 34 15.493 34 L 13.867 34 14.184 36.750 L 14.500 39.500 16.808 39.251 L 19.116 39.003 18.499 40.001 L 17.882 41 19.500 41 L 21.118 41 20.459 39.933 L 19.799 38.866 21.150 39.052 C 21.892 39.154, 23.063 39.184, 23.750 39.118 L 25 39 25 36.500 L 25 34 23.441 34 L 21.882 34 22.527 32.956 L 23.172 31.912 21.964 30.456 C 21.299 29.655, 20.190 29, 19.500 29 C 18.810 29, 17.701 29.655, 17.036 30.456 M 133.250 29.651 L 132 30.167 132 31.723 L 132 33.280 130.338 34.495 L 128.675 35.711 129.306 37.355 L 129.937 39 132.528 39 L 135.118 39 134.500 40 L 133.882 41 135.500 41 L 137.118 41 136.395 39.830 L 135.672 38.660 137.214 39.252 L 138.756 39.844 139.878 38.722 C 140.495 38.105, 141 36.790, 141 35.800 L 141 34 139.570 34 L 138.139 34 137.820 31.760 L 137.500 29.520 136 29.328 C 135.175 29.222, 133.938 29.367, 133.250 29.651 M 79.406 43.152 L 78.694 44.303 80.538 45.652 C 82.870 47.357, 83.471 47.342, 84.964 45.544 L 86.172 44.088 85.527 43.044 L 84.882 42 82.500 42 L 80.118 42 79.406 43.152 M 88 62.014 L 86.500 62.996 83.500 62.441 L 80.500 61.885 83 63.925 L 85.500 65.965 86.750 65.514 L 88 65.063 88.152 67.781 C 88.236 69.277, 88.409 70.950, 88.537 71.500 C 88.665 72.050, 88.850 74.300, 88.948 76.500 L 89.127 80.500 89.955 78.455 L 90.784 76.409 90.032 69.455 C 89.618 65.630, 89.468 62.163, 89.699 61.750 C 90.254 60.756, 89.814 60.825, 88 62.014 M 28.750 64.106 L 27 65.099 27 68.050 L 27 71 29.021 71 L 31.043 71 32.199 68.463 L 33.355 65.926 31.927 64.520 L 30.500 63.113 28.750 64.106 M 36.015 67.240 C 35.202 68.483, 34.477 70.302, 34.404 71.283 L 34.270 73.066 35.885 71.743 C 36.773 71.016, 39.245 69.631, 41.378 68.665 L 45.257 66.910 44.707 69.012 L 44.157 71.114 45.579 69.935 C 47.470 68.365, 47.374 67.714, 45.033 66.253 L 43.066 65.024 40.600 65.962 L 38.133 66.900 37.813 65.940 L 37.493 64.980 36.015 67.240 M 76.671 75.450 L 74.842 76.836 76.024 79.045 L 77.206 81.254 75.882 82.073 L 74.558 82.891 75.182 83.515 L 75.805 84.139 77.903 82.829 L 80 81.519 80 80.259 L 80 79 81 79 L 82 79 82 81.059 L 82 83.118 82.931 82.543 L 83.862 81.967 84.490 82.984 C 84.835 83.543, 85.597 84, 86.181 84 L 87.245 84 86.248 82.750 L 85.251 81.500 85.612 79.300 L 85.972 77.101 84.832 76.396 L 83.691 75.691 84.405 76.845 L 85.118 78 82.809 77.985 C 81.539 77.976, 79.880 77.577, 79.122 77.096 L 77.744 76.224 78.431 75.112 C 79.322 73.670, 78.916 73.748, 76.671 75.450 M 106.857 76.920 L 110.214 79.824 107.857 81.162 L 105.500 82.500 105.500 84.500 L 105.500 86.500 102.171 88.162 C 100.340 89.077, 98.540 90.161, 98.171 90.573 L 97.500 91.321 98.920 90.496 L 100.340 89.672 99.711 91.310 L 99.083 92.947 100.792 93.955 L 102.500 94.963 101 95.965 C 100.175 96.517, 99.050 96.813, 98.500 96.624 L 97.500 96.280 97.747 94.092 L 97.993 91.904 96.347 92.825 L 94.701 93.747 94.355 96.907 L 94.010 100.066 95.505 100.640 L 97 101.214 97 102.638 L 97 104.063 93.750 104.046 C 91.963 104.036, 85.662 104.219, 79.750 104.451 L 69 104.874 69 103.937 L 69 103 70.750 102.882 C 71.713 102.816, 72.838 102.816, 73.250 102.882 C 73.662 102.947, 74 102.494, 74 101.875 L 74 100.750 76.750 101.305 C 78.263 101.610, 80.287 102.165, 81.250 102.537 L 83 103.214 83.073 100.857 L 83.146 98.500 84.866 95.569 C 85.812 93.957, 87.192 92.436, 87.932 92.189 L 89.278 91.741 88.511 92.982 L 87.744 94.224 89.018 95.011 L 90.291 95.798 89.634 97.512 L 88.976 99.225 87.621 98.100 L 86.265 96.975 85.047 98.444 L 83.828 99.912 84.473 100.956 C 84.828 101.530, 85.766 102, 86.559 102 L 88 102 88 100.878 L 88 99.755 89.576 101.063 L 91.152 102.371 92.035 100.944 L 92.917 99.517 91.958 98.558 L 91 97.600 91 94.300 L 91 91 88.750 90.833 C 87.513 90.740, 84.112 90.570, 81.193 90.453 L 75.885 90.241 73.693 88.248 L 71.500 86.255 70.250 86.711 L 69 87.167 69 89.238 L 69 91.310 67.250 89.773 C 66.287 88.928, 64.487 87.928, 63.250 87.551 L 61 86.865 61 87.695 C 61 88.152, 62.013 88.970, 63.250 89.513 L 65.500 90.500 65.625 91.750 C 65.864 94.141, 66.009 94.238, 67.500 93 L 69 91.755 69 95.445 L 69 99.135 67 98.500 L 65 97.865 65 99.540 L 65 101.214 66.500 100.638 L 68 100.063 68 102.031 L 68 104 67.065 104 C 66.551 104, 64.863 103.480, 63.315 102.844 C 61.767 102.208, 59.686 101.791, 58.691 101.917 L 56.882 102.146 57.552 98.573 L 58.223 95 56.495 95 L 54.767 95 55.370 92.750 C 55.701 91.513, 55.979 90.177, 55.986 89.781 L 56 89.063 57.500 89.638 L 59 90.214 59 89.208 L 59 88.202 54.914 86.072 L 50.828 83.942 50.300 85.960 L 49.773 87.978 48.886 87.430 L 48 86.882 48 83.991 L 48 81.099 53 78.805 C 55.750 77.544, 58 76.192, 58 75.800 L 58 75.089 54.250 76.431 C 52.188 77.169, 49.230 78.361, 47.678 79.080 L 44.857 80.386 43.944 78.943 L 43.031 77.500 43.015 80.203 C 43.007 81.690, 42.487 84.031, 41.861 85.406 L 40.721 87.907 39.111 88.338 L 37.500 88.768 39.750 88.884 L 42 89 42 91.879 L 42 94.759 45.999 98.879 C 48.198 101.146, 50.388 103, 50.864 103 L 51.730 103 51.303 109.729 L 50.875 116.459 49.790 117.130 L 48.705 117.801 38.778 117.922 L 28.852 118.043 29.407 116.271 C 29.712 115.297, 30.027 111.800, 30.107 108.500 L 30.252 102.500 31.697 99.199 C 32.492 97.383, 33.411 94.233, 33.739 92.199 L 34.335 88.500 29.796 92.212 C 27.299 94.253, 25.061 95.728, 24.822 95.489 C 24.583 95.250, 22.691 95.523, 20.617 96.095 L 16.846 97.137 17.173 116.142 L 17.500 135.147 20.584 137.823 C 22.280 139.296, 24.428 141.738, 25.357 143.250 L 27.046 146 26.144 146 C 25.647 146, 23.387 144.200, 21.121 142.001 L 17 138.002 17 140.995 L 17 143.987 21.150 146.994 C 23.433 148.647, 25.885 150, 26.600 150 C 27.315 150, 28.260 150.563, 28.700 151.250 C 29.140 151.938, 31.235 153.400, 33.356 154.500 C 35.478 155.600, 39.528 157.711, 42.356 159.192 C 45.185 160.672, 47.870 161.910, 48.323 161.942 L 49.145 162 47.057 159.346 L 44.969 156.691 46.235 155.096 C 46.931 154.218, 48.090 152.450, 48.811 151.166 L 50.122 148.832 49.484 145.927 C 49.133 144.330, 48.413 142.755, 47.883 142.428 L 46.920 141.832 47.571 144.428 L 48.222 147.023 46.583 146.394 C 45.682 146.048, 44.480 144.896, 43.911 143.834 L 42.878 141.904 40.939 142.519 L 39 143.135 39 142.259 C 39 141.777, 38.288 140.509, 37.418 139.441 L 35.837 137.500 36.381 139.235 L 36.926 140.969 35.029 141.985 C 33.985 142.543, 32.818 143, 32.435 143 L 31.738 143 32.315 139.446 L 32.892 135.892 30.946 133.946 L 29 132 29.142 126.750 L 29.284 121.500 29.892 125.438 L 30.500 129.375 32.250 127.616 C 33.212 126.649, 34 125.449, 34 124.950 L 34 124.043 36.517 125.190 L 39.034 126.336 40.432 124.424 L 41.830 122.513 40.698 121.814 L 39.567 121.114 38.284 122.180 L 37 123.245 37 122.245 C 37 121.695, 37.648 120.707, 38.440 120.050 L 39.879 118.855 42.690 119.178 L 45.500 119.500 45.651 123.500 L 45.803 127.500 45.332 125.250 C 44.792 122.669, 43.481 122.304, 42.638 124.500 L 42.063 126 42.839 126 L 43.616 126 44.558 130.250 L 45.500 134.500 48.500 135.063 C 51.902 135.702, 54 135.233, 54 133.834 L 54 132.882 53.069 133.457 L 52.138 134.033 51.580 133.130 L 51.022 132.227 52.467 131.027 L 53.912 129.828 55.056 130.535 L 56.200 131.241 55.065 129.121 C 54.440 127.954, 53.495 127, 52.965 127 L 52 127 52 125.502 L 52 124.005 56.750 121.752 L 61.500 119.500 65 119.500 L 68.500 119.500 68.835 121.865 L 69.169 124.231 68.085 125.315 L 67 126.400 67 129.200 L 67 132 68.750 131.985 L 70.500 131.969 69.387 131.235 L 68.274 130.500 68.554 128 C 68.959 124.379, 69.044 124.295, 70.078 126.500 L 71.016 128.500 70.447 123.750 L 69.877 119 70.748 119 L 71.619 119 72.600 124.929 L 73.580 130.859 72.790 130.370 L 72 129.882 72 130.941 C 72 131.523, 72.413 132, 72.918 132 C 73.423 132, 74.495 132.253, 75.299 132.561 L 76.762 133.123 78.853 128.804 L 80.943 124.486 80.722 121.518 L 80.500 118.550 81.750 118.400 C 82.438 118.317, 83.675 118.194, 84.500 118.125 L 86 118 86.015 113.250 C 86.024 110.638, 86.361 108.006, 86.765 107.401 L 87.500 106.303 93.293 105.638 L 99.085 104.973 98.043 106.921 C 96.812 109.220, 96.700 110.303, 97.761 109.648 L 98.522 109.177 100.361 110.522 L 102.200 111.867 101.516 112.974 L 100.832 114.081 98.916 113.473 L 97 112.865 97 114.492 L 97 116.118 96 115.500 L 95 114.882 95 115.941 L 95 117 90.941 117 L 86.882 117 87.510 118.016 L 88.138 119.033 89.048 118.470 L 89.959 117.908 91.842 118.916 L 93.726 119.924 94.947 122.871 L 96.167 125.819 95.084 127.844 C 93.650 130.522, 93.714 131, 95.500 131 L 97 131 97 128.768 L 97 126.536 99.500 130.215 C 100.875 132.238, 102 134.191, 102 134.554 L 102 135.214 100.250 134.484 C 98.002 133.547, 86.962 131.072, 85 131.066 L 83.500 131.061 85.500 132.226 C 86.600 132.866, 89.750 133.909, 92.500 134.544 L 97.500 135.698 97.361 137.099 C 97.285 137.869, 96.899 139.287, 96.504 140.250 L 95.786 142 97.393 142 L 99 142 99 145.845 L 99 149.690 101.016 151.514 L 103.032 153.339 104.484 151.419 L 105.936 149.500 105.968 150.964 L 106 152.429 107.381 150.964 L 108.761 149.500 109.403 144.341 L 110.045 139.182 106.272 136.063 L 102.500 132.943 103.834 132.111 L 105.168 131.278 103.480 130.631 L 101.792 129.983 102.380 128.452 L 102.968 126.921 101.778 125.016 L 100.589 123.112 102.449 121.056 L 104.310 119 106.655 119 L 109 119 109 113.122 L 109 107.245 110.328 106.143 L 111.656 105.041 114.753 105.929 L 117.849 106.817 118.425 106.242 C 118.741 105.926, 119 104.617, 119 103.333 L 119 101 120 101 L 121 101 121 102.800 C 121 103.790, 121.480 105.080, 122.066 105.666 L 123.133 106.733 121.070 110.116 C 119.936 111.977, 119.006 113.036, 119.004 112.468 L 119 111.436 116.722 111.248 L 114.444 111.059 113.269 112.941 L 112.094 114.822 113.637 115.414 L 115.180 116.006 116.340 115.311 L 117.500 114.616 116.176 116.250 L 114.851 117.884 119.676 118.192 L 124.500 118.500 124.500 126 L 124.500 133.500 122.818 137.500 C 121.894 139.700, 120.880 142.706, 120.567 144.180 C 120.253 145.654, 119.334 147.523, 118.524 148.333 L 117.051 149.806 118.757 150.460 L 120.462 151.114 120.816 150.051 L 121.171 148.988 122.085 149.553 L 123 150.118 123 149.252 C 123 148.775, 124.173 146.970, 125.607 145.239 L 128.213 142.093 130.857 142.572 L 133.500 143.052 136 141.746 L 138.500 140.439 138.500 123.220 L 138.500 106.001 137.828 106 C 137.458 106, 136.642 104.447, 136.016 102.548 L 134.876 99.096 132.989 98.497 L 131.102 97.898 130.552 96.165 L 130.003 94.433 126.753 92.513 L 123.504 90.594 125.293 93.325 L 127.083 96.056 126.567 96.891 C 125.911 97.953, 119.579 99.526, 110 101.006 C 105.875 101.644, 101.719 102.579, 100.764 103.083 C 99.809 103.587, 98.796 104, 98.514 104 C 97.780 104, 97.877 100.456, 98.631 99.702 L 99.263 99.070 101.252 100.135 L 103.241 101.200 102.554 100.088 L 101.867 98.977 104.934 98.363 L 108 97.750 108 96.934 C 108 96.485, 107.500 95.809, 106.888 95.431 L 105.776 94.744 104.904 96.122 L 104.031 97.500 104.015 95.250 L 104 93 103 93 L 102 93 102 91.607 L 102 90.214 103.500 89.638 L 105 89.063 105 90.972 L 105 92.882 106.107 93.566 L 107.214 94.250 106.540 92.125 L 105.865 90 106.778 90 C 107.279 90, 108.505 90.900, 109.500 92 L 111.310 94 113.123 94 L 114.936 94 116.428 96.750 L 117.920 99.500 117.960 97.729 L 118 95.957 120.463 94.835 L 122.926 93.713 122.713 91.647 L 122.500 89.582 124 89.281 L 125.500 88.980 130.401 92.740 L 135.303 96.500 137.011 99.723 C 139.099 103.663, 139.678 103.285, 139.191 98.302 L 138.820 94.500 134.660 91.388 C 132.372 89.676, 127.800 86.823, 124.500 85.048 C 121.200 83.273, 117.825 81.230, 117 80.510 C 115.651 79.331, 110.973 77.016, 105.500 74.819 L 103.500 74.016 106.857 76.920 M 42.102 99.311 L 42 102.123 37.500 101.448 L 33 100.773 33 101.758 L 33 102.742 38.117 103.421 C 44.235 104.233, 44.052 104.360, 43.026 99.993 L 42.205 96.500 42.102 99.311 M 128 101.404 C 128 102.241, 128.900 105.209, 130 108 C 131.100 110.791, 132 113.957, 132 115.037 L 132 117 133 117 L 134 117 134 115.605 C 134 113.179, 129.988 101.111, 128.973 100.483 L 128 99.882 128 101.404 M 53.889 104.793 C 54.506 105.945, 55.458 107.165, 56.005 107.503 L 57 108.118 57 107.059 C 57 106.477, 57.375 106, 57.833 106 L 58.667 106 58.667 109.504 L 58.667 113.009 60.002 115.504 L 61.338 118 68.039 118 L 74.740 118 75.259 113.750 C 75.545 111.412, 76.064 108.810, 76.413 107.967 L 77.047 106.435 71.774 106.369 C 66.661 106.304, 58.447 104.890, 54.634 103.418 L 52.767 102.697 53.889 104.793 M 19 120.941 C 19 122.009, 19.416 123.139, 19.924 123.453 C 20.431 123.767, 21.611 126.381, 22.546 129.262 C 23.890 133.406, 29.123 144.739, 30.699 146.917 C 31.547 148.090, 31.938 145.941, 31.382 143.160 L 30.750 140 29.498 140 L 28.247 140 24.906 129.500 L 21.565 119 20.282 119 L 19 119 19 120.941 M 74.688 120.646 C 73.687 121.646, 73.874 125.261, 75.015 127 L 76 128.500 76.926 127.061 L 77.851 125.623 77.660 123.140 L 77.469 120.656 76.422 120.307 C 75.846 120.115, 75.066 120.268, 74.688 120.646 M 36 132.673 L 36 135 37.418 135 C 38.198 135, 39.548 134.727, 40.418 134.393 L 42 133.786 42 132.507 L 42 131.227 39 130.787 L 36 130.346 36 132.673 M 56.311 134.082 L 56.863 136.193 56.327 137.591 L 55.790 138.989 54.956 138.473 C 54.497 138.189, 52.319 138.245, 50.116 138.597 L 46.110 139.238 49.403 142.369 C 51.213 144.091, 52.876 146.058, 53.098 146.740 L 53.500 147.979 57.276 146.935 L 61.051 145.892 60.519 145.031 L 59.988 144.171 61.244 143.748 L 62.500 143.325 61.259 141.821 L 60.017 140.316 60.679 139.654 L 61.341 138.992 59.097 136.604 L 56.854 134.215 58.126 133.791 L 59.399 133.367 57.579 132.669 L 55.759 131.970 56.311 134.082 M 110.040 133.548 L 111.429 135.221 111.239 141.612 L 111.050 148.003 109.545 150.913 C 107.709 154.463, 103.943 157.530, 99.403 159.171 L 96 160.402 96 161.576 C 96 162.222, 95.760 164.269, 95.467 166.125 L 94.935 169.500 96.217 166.142 L 97.500 162.785 103.437 160.386 L 109.373 157.986 110.044 159.072 L 110.716 160.158 111.289 155.885 L 111.862 151.613 114.058 149.956 L 116.254 148.300 114.067 147.728 L 111.880 147.156 112.561 143.328 C 112.936 141.223, 113.603 139.108, 114.043 138.628 L 114.844 137.756 114.362 136.502 L 113.881 135.247 117.962 135.993 L 122.043 136.739 122.538 135.939 L 123.033 135.138 122.259 134.660 C 121.833 134.397, 119.688 133.890, 117.492 133.533 C 115.297 133.177, 112.409 132.657, 111.075 132.380 L 108.651 131.874 110.040 133.548 M 71 134.906 L 71 135.723 68.500 135.245 L 66 134.767 66 136.261 C 66 137.083, 66.670 138.311, 67.488 138.990 L 68.976 140.225 69.595 138.613 C 69.936 137.726, 70.625 137, 71.127 137 L 72.041 137 70 141 L 67.959 145 66.480 145 L 65 145 65 140.417 L 65 135.833 63.750 136.292 L 62.500 136.750 62.957 138.125 C 63.208 138.881, 63.433 141.188, 63.457 143.250 L 63.500 147 66.500 147.118 C 68.150 147.184, 69.950 147.141, 70.500 147.023 C 71.050 146.906, 72.951 146.763, 74.725 146.707 L 77.951 146.605 80.290 148.803 C 83.407 151.731, 84.211 151.553, 86.099 147.517 L 87.699 144.098 86.224 143.533 L 84.750 142.967 85.370 139.090 L 85.990 135.213 82.389 136.025 L 78.789 136.837 74.895 135.463 L 71 134.089 71 134.906 M 68.635 155.669 C 69.342 160.724, 69.785 162.045, 70.722 161.891 C 71.150 161.821, 71.725 161.851, 72 161.958 C 72.275 162.065, 73.385 162.318, 74.466 162.520 L 76.432 162.886 77.780 161.767 L 79.129 160.648 78.506 158.169 L 77.884 155.690 79.163 154.899 L 80.442 154.109 79.850 153.517 L 79.258 152.925 76.629 154.123 C 75.183 154.782, 74 155.699, 74 156.161 C 74 156.622, 73.540 157, 72.977 157 L 71.954 157 73.592 154.500 L 75.230 152 74.315 152 C 73.812 152, 72.879 152.521, 72.242 153.158 L 71.085 154.315 69.592 153.076 L 68.099 151.838 68.635 155.669 M 64.093 170 L 63.859 175.500 63 173.500 L 62.141 171.500 62.070 174.309 L 62 177.118 61 176.500 L 60 175.882 60 176.780 C 60 177.275, 58.976 178.146, 57.724 178.716 L 55.448 179.753 53.526 183.322 L 51.604 186.891 52.711 189.196 C 54.388 192.685, 55.335 195.415, 55.159 196.250 L 55 197 56.480 197 L 57.959 197 59.973 200.948 L 61.987 204.895 66.607 208.073 L 71.226 211.252 71.962 210.062 L 72.697 208.872 76.932 208.570 L 81.166 208.269 81.660 209.556 L 82.154 210.844 81.098 212.817 L 80.042 214.790 81.466 215.972 L 82.890 217.154 85.185 216.827 L 87.480 216.500 87.789 214.876 L 88.098 213.252 85.019 210.173 L 81.940 207.093 83.643 205.104 L 85.346 203.115 87.144 204.077 L 88.942 205.039 88.375 207.876 L 87.808 210.712 89.404 211.325 L 91 211.937 91 213.969 L 91 216 93.965 216 L 96.930 216 97.965 214.066 C 98.534 213.002, 99 210.822, 99 209.221 L 99 206.310 97.124 204.612 L 95.247 202.914 94.655 204.457 C 94.329 205.306, 93.699 206, 93.255 206 L 92.447 206 92.833 201.950 L 93.220 197.900 91.360 195.817 L 89.500 193.734 91.692 194.416 L 93.885 195.098 93.508 190.474 L 93.131 185.849 91.640 183.573 L 90.149 181.298 89.824 177.899 L 89.500 174.500 88.500 174.710 L 87.500 174.921 87.180 176.960 C 86.839 179.138, 86.204 179.417, 84.319 178.218 L 83.138 177.467 82.744 172.984 L 82.349 168.500 82.175 173.013 L 82 177.526 79.750 178.513 L 77.500 179.500 77.497 186.049 L 77.494 192.597 75.747 195.263 L 74 197.930 74 199.850 L 74 201.770 71.454 203.438 L 68.909 205.106 67.086 204.527 C 64.593 203.736, 62.395 201.032, 61.633 197.820 L 60.997 195.140 63.248 194.820 L 65.500 194.500 65.800 191.915 L 66.101 189.330 63.800 189.415 L 61.500 189.500 61.208 187 L 60.917 184.500 63.208 179.999 L 65.500 175.498 64.913 169.999 L 64.326 164.500 64.093 170 M 117.105 167.388 L 114.842 169.797 112.171 170.310 L 109.500 170.823 108.500 170.070 L 107.500 169.318 105 169.970 L 102.500 170.623 104.500 171.704 L 106.500 172.785 112 173.143 L 117.500 173.500 117.223 171.825 L 116.947 170.151 118.907 168.777 L 120.868 167.404 120.118 166.191 L 119.369 164.979 117.105 167.388 M 122.469 167.500 C 122.211 168.325, 121.810 169.620, 121.578 170.378 L 121.156 171.756 122.278 172.878 C 122.895 173.495, 124.158 174, 125.083 174 L 126.767 174 127.358 171.750 L 127.949 169.500 127.031 169.185 L 126.112 168.871 126.663 167.435 L 127.214 166 125.076 166 L 122.937 166 122.469 167.500 M 66 172.399 L 66 174.799 70.500 175.157 C 72.975 175.353, 75 175.460, 75 175.393 C 75 175.017, 67.276 170, 66.696 170 L 66 170 66 172.399 M 107 185.941 C 107 186.459, 107.450 187.160, 108 187.500 C 108.550 187.840, 109 188.530, 109 189.034 L 109 189.950 105.957 189.341 L 102.913 188.733 100.457 191.041 L 98 193.349 98 195.974 L 98 198.600 99.200 199.800 L 100.400 201 102.637 201 L 104.874 201 104.308 204.492 L 103.741 207.983 104.940 209.427 L 106.138 210.871 109.033 211.507 L 111.929 212.143 114.714 210.803 L 117.500 209.462 117.565 205.482 L 117.629 201.502 119.565 201.144 C 120.629 200.946, 122.063 200.328, 122.750 199.770 L 124 198.755 124 196.100 L 124 193.445 122.376 191.127 L 120.753 188.809 118.126 189.263 C 116.682 189.513, 114.601 190.097, 113.503 190.560 L 111.505 191.404 113.253 188.737 C 115.628 185.111, 115.561 185, 111 185 L 107 185 107 185.941 M 69.872 190.250 C 69.802 190.387, 69.639 191.512, 69.509 192.750 L 69.273 195 71.578 195 L 73.882 195 74.594 193.848 L 75.306 192.697 73.462 191.348 C 71.772 190.113, 70.190 189.629, 69.872 190.250 M 18.456 192.929 L 19.030 193.857 16.765 194.179 L 14.500 194.500 14.180 196.750 L 13.861 199 15.430 199 L 17 199 17 201.566 L 17 204.133 19.741 203.816 L 22.483 203.500 22.858 201.525 C 23.064 200.439, 23.880 199.077, 24.671 198.499 L 26.109 197.447 25.447 195.724 L 24.786 194 22.893 194 L 21 194 21 193 L 21 192 19.441 192 L 17.882 192 18.456 192.929 M 134 193 L 134 194 132.700 194 C 131.985 194, 130.895 194.505, 130.278 195.122 L 129.156 196.244 129.685 197.622 L 130.214 199 131.436 199 L 132.659 199 132.579 201.250 L 132.500 203.500 134.887 203.837 L 137.274 204.175 138.126 202.837 L 138.979 201.500 138.521 200.250 L 138.063 199 139.531 199 L 141 199 141 196.500 L 141 194 138.441 194 L 135.882 194 136.500 193 L 137.118 192 135.559 192 L 134 192 134 193 M 15.557 209.223 C 14.701 210.445, 14 212.245, 14 213.223 L 14 215 16 217 L 18 219 21.250 218.840 L 24.500 218.680 21.355 218.284 L 18.209 217.889 16.422 215.914 L 14.635 213.939 15.587 211.220 L 16.539 208.500 20.520 207.892 L 24.500 207.284 20.807 207.142 L 17.113 207 15.557 209.223 M 131.571 208.571 L 130 210.143 130 212.571 L 130 215 132 217 L 134 219 137 219 L 140 219 139.811 212.750 L 139.622 206.500 139.261 212.250 L 138.900 218 136.522 218 L 134.143 218 132.517 216.374 L 130.891 214.749 131.196 212.147 L 131.500 209.546 134 208.288 L 136.500 207.029 134.821 207.015 L 133.143 207 131.571 208.571" stroke="none" fill="#ffffff" fill-rule="evenodd"/><path d="M 14 5.820 C 13.175 6.194, 11.286 7.324, 9.802 8.331 L 7.103 10.162 5.523 14.331 L 3.942 18.500 4.221 118.500 L 4.500 218.500 6.829 221.765 L 9.158 225.030 12.329 226.765 L 15.500 228.500 78.500 228.500 L 141.500 228.500 144.829 226.684 L 148.157 224.867 150.057 220.684 L 151.956 216.500 151.978 116.962 L 152 17.424 149.750 13.036 L 147.500 8.648 144.016 6.824 L 140.531 5 78.016 5.070 L 15.500 5.141 14 5.820 M 13.500 6.943 C 10.756 8.093, 7.349 11.930, 6.067 15.315 L 5 18.130 5 116.597 L 5 215.064 6.364 218.329 L 7.728 221.593 10.966 224.318 L 14.204 227.043 78.522 226.771 L 142.840 226.500 145.549 224 L 148.258 221.500 149.629 218.282 L 151 215.064 151 116.500 L 151 17.936 149.629 14.718 L 148.258 11.500 145.549 9 L 142.840 6.500 79.170 6.302 L 15.500 6.104 13.500 6.943 M 130.456 15.255 C 130.139 16.080, 130.020 18.947, 130.190 21.627 L 130.500 26.500 132.808 26.827 L 135.116 27.154 137.558 25.554 C 138.901 24.674, 140 23.514, 140 22.977 L 140 22 138 24 L 136 26 133.448 26 L 130.895 26 131.198 20.750 L 131.500 15.500 134.493 15.721 L 137.485 15.943 138.743 17.663 L 140 19.382 140 18.314 C 140 16.671, 137.636 15.077, 134.170 14.384 L 131.031 13.756 130.456 15.255 M 14 21 L 14 27 17.066 27 C 18.752 27, 21.002 26.534, 22.066 25.965 L 24 24.930 24 23.810 L 24 22.690 22.171 24.345 L 20.343 26 17.671 26 L 15 26 15 21 L 15 16 18.450 16 L 21.901 16 22.920 17.750 L 23.939 19.500 23.970 18.450 C 23.986 17.872, 23.460 16.860, 22.800 16.200 L 21.600 15 17.800 15 L 14 15 14 21 M 36.200 21.200 L 35 22.400 35 26.200 L 35 30 33.200 30 C 32.210 30, 30.860 30.540, 30.200 31.200 L 29 32.400 29 35.545 L 29 38.690 30.829 40.345 L 32.657 42 34.394 42 C 35.350 42, 37.002 41.534, 38.066 40.965 L 40 39.930 40 41.406 C 40 42.218, 39.550 43.160, 39 43.500 C 38.450 43.840, 38 44.541, 38 45.059 L 38 46 42 46 L 46 46 46 45.059 C 46 44.541, 45.550 43.840, 45 43.500 C 44.450 43.160, 44 42.470, 44 41.966 L 44 41.050 47.043 41.659 L 50.087 42.267 52.543 39.959 L 55 37.651 55 35.026 L 55 32.400 53.800 31.200 L 52.600 30 50.363 30 L 48.126 30 48.692 26.508 L 49.259 23.017 48.007 21.508 L 46.755 20 42.078 20 L 37.400 20 36.200 21.200 M 58.856 21.675 L 57.213 22.106 56.689 24.803 L 56.165 27.500 57.082 27.833 L 58 28.167 58 30.190 L 58 32.214 59.417 31.670 L 60.834 31.126 61.417 32.645 C 61.738 33.480, 62 35.686, 62 37.547 L 62 40.930 64.083 42.044 L 66.165 43.159 64.605 44.329 L 63.044 45.500 64.465 54.859 C 66.123 65.787, 66.549 66.629, 67.517 60.899 L 68.233 56.664 69.073 58.165 L 69.913 59.666 73.035 59.208 L 76.157 58.750 77.203 56.453 L 78.250 54.156 77.155 51.016 L 76.061 47.876 77.030 45.938 C 77.564 44.872, 78.450 43.106, 79 42.014 C 79.550 40.921, 80 39.206, 80 38.202 L 80 36.376 76.921 34.100 C 73.079 31.259, 73.616 30.524, 78.149 32.418 L 81.605 33.862 83.053 32.946 C 83.849 32.443, 85.097 32.024, 85.827 32.015 L 87.154 32 90.077 34.923 L 93 37.846 93 39.806 L 93 41.767 91 42.290 L 89 42.813 89 44.906 L 89 47 91 47 L 93 47 93 50.550 L 93 54.099 91.594 56.818 L 90.188 59.537 91.594 61.460 L 93 63.382 93.132 60.941 L 93.263 58.500 94 62 L 94.737 65.500 94.868 62.691 L 95 59.882 95.778 60.363 L 96.556 60.844 98.570 59.172 L 100.584 57.500 101.887 53.665 L 103.191 49.830 102.552 46.423 L 101.912 43.016 99.493 42.409 L 97.073 41.802 94.853 36.888 L 92.632 31.974 88.249 29.406 L 83.866 26.837 82.183 27.534 C 81.257 27.917, 78.813 28.446, 76.750 28.709 L 73 29.186 73.015 27.343 C 73.024 26.329, 73.450 24.837, 73.963 24.026 L 74.894 22.553 73.697 21.792 C 73.039 21.373, 71.311 21.024, 69.857 21.015 L 67.214 21 66.663 22.436 L 66.112 23.872 69.144 26.837 L 72.177 29.801 71.053 31.901 C 69.762 34.313, 69.553 34.367, 66.927 32.961 L 64.985 31.922 65.507 28.961 L 66.029 26 64.584 26 L 63.139 26 62.820 23.828 L 62.500 21.657 61.500 21.451 C 60.950 21.337, 59.760 21.438, 58.856 21.675 M 17.036 30.456 L 15.828 31.912 16.473 32.956 L 17.118 34 15.493 34 L 13.867 34 14.184 36.750 L 14.500 39.500 16.808 39.251 L 19.116 39.003 18.499 40.001 L 17.882 41 19.500 41 L 21.118 41 20.459 39.933 L 19.799 38.866 21.150 39.052 C 21.892 39.154, 23.063 39.184, 23.750 39.118 L 25 39 25 36.500 L 25 34 23.441 34 L 21.882 34 22.527 32.956 L 23.172 31.912 21.964 30.456 C 21.299 29.655, 20.190 29, 19.500 29 C 18.810 29, 17.701 29.655, 17.036 30.456 M 133.250 29.651 L 132 30.167 132 31.723 L 132 33.280 130.338 34.495 L 128.675 35.711 129.306 37.355 L 129.937 39 132.528 39 L 135.118 39 134.500 40 L 133.882 41 135.500 41 L 137.118 41 136.395 39.830 L 135.672 38.660 137.214 39.252 L 138.756 39.844 139.878 38.722 C 140.495 38.105, 141 36.790, 141 35.800 L 141 34 139.570 34 L 138.139 34 137.820 31.760 L 137.500 29.520 136 29.328 C 135.175 29.222, 133.938 29.367, 133.250 29.651 M 79.406 43.152 L 78.694 44.303 80.538 45.652 C 82.870 47.357, 83.471 47.342, 84.964 45.544 L 86.172 44.088 85.527 43.044 L 84.882 42 82.500 42 L 80.118 42 79.406 43.152 M 88 62.014 L 86.500 62.996 83.500 62.441 L 80.500 61.885 83 63.925 L 85.500 65.965 86.750 65.514 L 88 65.063 88.152 67.781 C 88.236 69.277, 88.409 70.950, 88.537 71.500 C 88.665 72.050, 88.850 74.300, 88.948 76.500 L 89.127 80.500 89.955 78.455 L 90.784 76.409 90.032 69.455 C 89.618 65.630, 89.468 62.163, 89.699 61.750 C 90.254 60.756, 89.814 60.825, 88 62.014 M 28.750 64.106 L 27 65.099 27 68.050 L 27 71 29.021 71 L 31.043 71 32.199 68.463 L 33.355 65.926 31.927 64.520 L 30.500 63.113 28.750 64.106 M 36.015 67.240 C 35.202 68.483, 34.477 70.302, 34.404 71.283 L 34.270 73.066 35.885 71.743 C 36.773 71.016, 39.245 69.631, 41.378 68.665 L 45.257 66.910 44.707 69.012 L 44.157 71.114 45.579 69.935 C 47.470 68.365, 47.374 67.714, 45.033 66.253 L 43.066 65.024 40.600 65.962 L 38.133 66.900 37.813 65.940 L 37.493 64.980 36.015 67.240 M 76.671 75.450 L 74.842 76.836 76.024 79.045 L 77.206 81.254 75.882 82.073 L 74.558 82.891 75.182 83.515 L 75.805 84.139 77.903 82.829 L 80 81.519 80 80.259 L 80 79 81 79 L 82 79 82 81.059 L 82 83.118 82.931 82.543 L 83.862 81.967 84.490 82.984 C 84.835 83.543, 85.597 84, 86.181 84 L 87.245 84 86.248 82.750 L 85.251 81.500 85.612 79.300 L 85.972 77.101 84.832 76.396 L 83.691 75.691 84.405 76.845 L 85.118 78 82.809 77.985 C 81.539 77.976, 79.880 77.577, 79.122 77.096 L 77.744 76.224 78.431 75.112 C 79.322 73.670, 78.916 73.748, 76.671 75.450 M 106.857 76.920 L 110.214 79.824 107.857 81.162 L 105.500 82.500 105.500 84.500 L 105.500 86.500 102.171 88.162 C 100.340 89.077, 98.540 90.161, 98.171 90.573 L 97.500 91.321 98.920 90.496 L 100.340 89.672 99.711 91.310 L 99.083 92.947 100.792 93.955 L 102.500 94.963 101 95.965 C 100.175 96.517, 99.050 96.813, 98.500 96.624 L 97.500 96.280 97.747 94.092 L 97.993 91.904 96.347 92.825 L 94.701 93.747 94.355 96.907 L 94.010 100.066 95.505 100.640 L 97 101.214 97 102.638 L 97 104.063 93.750 104.046 C 91.963 104.036, 85.662 104.219, 79.750 104.451 L 69 104.874 69 103.937 L 69 103 70.750 102.882 C 71.713 102.816, 72.838 102.816, 73.250 102.882 C 73.662 102.947, 74 102.494, 74 101.875 L 74 100.750 76.750 101.305 C 78.263 101.610, 80.287 102.165, 81.250 102.537 L 83 103.214 83.073 100.857 L 83.146 98.500 84.866 95.569 C 85.812 93.957, 87.192 92.436, 87.932 92.189 L 89.278 91.741 88.511 92.982 L 87.744 94.224 89.018 95.011 L 90.291 95.798 89.634 97.512 L 88.976 99.225 87.621 98.100 L 86.265 96.975 85.047 98.444 L 83.828 99.912 84.473 100.956 C 84.828 101.530, 85.766 102, 86.559 102 L 88 102 88 100.878 L 88 99.755 89.576 101.063 L 91.152 102.371 92.035 100.944 L 92.917 99.517 91.958 98.558 L 91 97.600 91 94.300 L 91 91 88.750 90.833 C 87.513 90.740, 84.112 90.570, 81.193 90.453 L 75.885 90.241 73.693 88.248 L 71.500 86.255 70.250 86.711 L 69 87.167 69 89.238 L 69 91.310 67.250 89.773 C 66.287 88.928, 64.487 87.928, 63.250 87.551 L 61 86.865 61 87.695 C 61 88.152, 62.013 88.970, 63.250 89.513 L 65.500 90.500 65.625 91.750 C 65.864 94.141, 66.009 94.238, 67.500 93 L 69 91.755 69 95.445 L 69 99.135 67 98.500 L 65 97.865 65 99.540 L 65 101.214 66.500 100.638 L 68 100.063 68 102.031 L 68 104 67.065 104 C 66.551 104, 64.863 103.480, 63.315 102.844 C 61.767 102.208, 59.686 101.791, 58.691 101.917 L 56.882 102.146 57.552 98.573 L 58.223 95 56.495 95 L 54.767 95 55.370 92.750 C 55.701 91.513, 55.979 90.177, 55.986 89.781 L 56 89.063 57.500 89.638 L 59 90.214 59 89.208 L 59 88.202 54.914 86.072 L 50.828 83.942 50.300 85.960 L 49.773 87.978 48.886 87.430 L 48 86.882 48 83.991 L 48 81.099 53 78.805 C 55.750 77.544, 58 76.192, 58 75.800 L 58 75.089 54.250 76.431 C 52.188 77.169, 49.230 78.361, 47.678 79.080 L 44.857 80.386 43.944 78.943 L 43.031 77.500 43.015 80.203 C 43.007 81.690, 42.487 84.031, 41.861 85.406 L 40.721 87.907 39.111 88.338 L 37.500 88.768 39.750 88.884 L 42 89 42 91.879 L 42 94.759 45.999 98.879 C 48.198 101.146, 50.388 103, 50.864 103 L 51.730 103 51.303 109.729 L 50.875 116.459 49.790 117.130 L 48.705 117.801 38.778 117.922 L 28.852 118.043 29.407 116.271 C 29.712 115.297, 30.027 111.800, 30.107 108.500 L 30.252 102.500 31.697 99.199 C 32.492 97.383, 33.411 94.233, 33.739 92.199 L 34.335 88.500 29.796 92.212 C 27.299 94.253, 25.061 95.728, 24.822 95.489 C 24.583 95.250, 22.691 95.523, 20.617 96.095 L 16.846 97.137 17.173 116.142 L 17.500 135.147 20.584 137.823 C 22.280 139.296, 24.428 141.738, 25.357 143.250 L 27.046 146 26.144 146 C 25.647 146, 23.387 144.200, 21.121 142.001 L 17 138.002 17 140.995 L 17 143.987 21.150 146.994 C 23.433 148.647, 25.885 150, 26.600 150 C 27.315 150, 28.260 150.563, 28.700 151.250 C 29.140 151.938, 31.235 153.400, 33.356 154.500 C 35.478 155.600, 39.528 157.711, 42.356 159.192 C 45.185 160.672, 47.870 161.910, 48.323 161.942 L 49.145 162 47.057 159.346 L 44.969 156.691 46.235 155.096 C 46.931 154.218, 48.090 152.450, 48.811 151.166 L 50.122 148.832 49.484 145.927 C 49.133 144.330, 48.413 142.755, 47.883 142.428 L 46.920 141.832 47.571 144.428 L 48.222 147.023 46.583 146.394 C 45.682 146.048, 44.480 144.896, 43.911 143.834 L 42.878 141.904 40.939 142.519 L 39 143.135 39 142.259 C 39 141.777, 38.288 140.509, 37.418 139.441 L 35.837 137.500 36.381 139.235 L 36.926 140.969 35.029 141.985 C 33.985 142.543, 32.818 143, 32.435 143 L 31.738 143 32.315 139.446 L 32.892 135.892 30.946 133.946 L 29 132 29.142 126.750 L 29.284 121.500 29.892 125.438 L 30.500 129.375 32.250 127.616 C 33.212 126.649, 34 125.449, 34 124.950 L 34 124.043 36.517 125.190 L 39.034 126.336 40.432 124.424 L 41.830 122.513 40.698 121.814 L 39.567 121.114 38.284 122.180 L 37 123.245 37 122.245 C 37 121.695, 37.648 120.707, 38.440 120.050 L 39.879 118.855 42.690 119.178 L 45.500 119.500 45.651 123.500 L 45.803 127.500 45.332 125.250 C 44.792 122.669, 43.481 122.304, 42.638 124.500 L 42.063 126 42.839 126 L 43.616 126 44.558 130.250 L 45.500 134.500 48.500 135.063 C 51.902 135.702, 54 135.233, 54 133.834 L 54 132.882 53.069 133.457 L 52.138 134.033 51.580 133.130 L 51.022 132.227 52.467 131.027 L 53.912 129.828 55.056 130.535 L 56.200 131.241 55.065 129.121 C 54.440 127.954, 53.495 127, 52.965 127 L 52 127 52 125.502 L 52 124.005 56.750 121.752 L 61.500 119.500 65 119.500 L 68.500 119.500 68.835 121.865 L 69.169 124.231 68.085 125.315 L 67 126.400 67 129.200 L 67 132 68.750 131.985 L 70.500 131.969 69.387 131.235 L 68.274 130.500 68.554 128 C 68.959 124.379, 69.044 124.295, 70.078 126.500 L 71.016 128.500 70.447 123.750 L 69.877 119 70.748 119 L 71.619 119 72.600 124.929 L 73.580 130.859 72.790 130.370 L 72 129.882 72 130.941 C 72 131.523, 72.413 132, 72.918 132 C 73.423 132, 74.495 132.253, 75.299 132.561 L 76.762 133.123 78.853 128.804 L 80.943 124.486 80.722 121.518 L 80.500 118.550 81.750 118.400 C 82.438 118.317, 83.675 118.194, 84.500 118.125 L 86 118 86.015 113.250 C 86.024 110.638, 86.361 108.006, 86.765 107.401 L 87.500 106.303 93.293 105.638 L 99.085 104.973 98.043 106.921 C 96.812 109.220, 96.700 110.303, 97.761 109.648 L 98.522 109.177 100.361 110.522 L 102.200 111.867 101.516 112.974 L 100.832 114.081 98.916 113.473 L 97 112.865 97 114.492 L 97 116.118 96 115.500 L 95 114.882 95 115.941 L 95 117 90.941 117 L 86.882 117 87.510 118.016 L 88.138 119.033 89.048 118.470 L 89.959 117.908 91.842 118.916 L 93.726 119.924 94.947 122.871 L 96.167 125.819 95.084 127.844 C 93.650 130.522, 93.714 131, 95.500 131 L 97 131 97 128.768 L 97 126.536 99.500 130.215 C 100.875 132.238, 102 134.191, 102 134.554 L 102 135.214 100.250 134.484 C 98.002 133.547, 86.962 131.072, 85 131.066 L 83.500 131.061 85.500 132.226 C 86.600 132.866, 89.750 133.909, 92.500 134.544 L 97.500 135.698 97.361 137.099 C 97.285 137.869, 96.899 139.287, 96.504 140.250 L 95.786 142 97.393 142 L 99 142 99 145.845 L 99 149.690 101.016 151.514 L 103.032 153.339 104.484 151.419 L 105.936 149.500 105.968 150.964 L 106 152.429 107.381 150.964 L 108.761 149.500 109.403 144.341 L 110.045 139.182 106.272 136.063 L 102.500 132.943 103.834 132.111 L 105.168 131.278 103.480 130.631 L 101.792 129.983 102.380 128.452 L 102.968 126.921 101.778 125.016 L 100.589 123.112 102.449 121.056 L 104.310 119 106.655 119 L 109 119 109 113.122 L 109 107.245 110.328 106.143 L 111.656 105.041 114.753 105.929 L 117.849 106.817 118.425 106.242 C 118.741 105.926, 119 104.617, 119 103.333 L 119 101 120 101 L 121 101 121 102.800 C 121 103.790, 121.480 105.080, 122.066 105.666 L 123.133 106.733 121.070 110.116 C 119.936 111.977, 119.006 113.036, 119.004 112.468 L 119 111.436 116.722 111.248 L 114.444 111.059 113.269 112.941 L 112.094 114.822 113.637 115.414 L 115.180 116.006 116.340 115.311 L 117.500 114.616 116.176 116.250 L 114.851 117.884 119.676 118.192 L 124.500 118.500 124.500 126 L 124.500 133.500 122.818 137.500 C 121.894 139.700, 120.880 142.706, 120.567 144.180 C 120.253 145.654, 119.334 147.523, 118.524 148.333 L 117.051 149.806 118.757 150.460 L 120.462 151.114 120.816 150.051 L 121.171 148.988 122.085 149.553 L 123 150.118 123 149.252 C 123 148.775, 124.173 146.970, 125.607 145.239 L 128.213 142.093 130.857 142.572 L 133.500 143.052 136 141.746 L 138.500 140.439 138.500 123.220 L 138.500 106.001 137.828 106 C 137.458 106, 136.642 104.447, 136.016 102.548 L 134.876 99.096 132.989 98.497 L 131.102 97.898 130.552 96.165 L 130.003 94.433 126.753 92.513 L 123.504 90.594 125.293 93.325 L 127.083 96.056 126.567 96.891 C 125.911 97.953, 119.579 99.526, 110 101.006 C 105.875 101.644, 101.719 102.579, 100.764 103.083 C 99.809 103.587, 98.796 104, 98.514 104 C 97.780 104, 97.877 100.456, 98.631 99.702 L 99.263 99.070 101.252 100.135 L 103.241 101.200 102.554 100.088 L 101.867 98.977 104.934 98.363 L 108 97.750 108 96.934 C 108 96.485, 107.500 95.809, 106.888 95.431 L 105.776 94.744 104.904 96.122 L 104.031 97.500 104.015 95.250 L 104 93 103 93 L 102 93 102 91.607 L 102 90.214 103.500 89.638 L 105 89.063 105 90.972 L 105 92.882 106.107 93.566 L 107.214 94.250 106.540 92.125 L 105.865 90 106.778 90 C 107.279 90, 108.505 90.900, 109.500 92 L 111.310 94 113.123 94 L 114.936 94 116.428 96.750 L 117.920 99.500 117.960 97.729 L 118 95.957 120.463 94.835 L 122.926 93.713 122.713 91.647 L 122.500 89.582 124 89.281 L 125.500 88.980 130.401 92.740 L 135.303 96.500 137.011 99.723 C 139.099 103.663, 139.678 103.285, 139.191 98.302 L 138.820 94.500 134.660 91.388 C 132.372 89.676, 127.800 86.823, 124.500 85.048 C 121.200 83.273, 117.825 81.230, 117 80.510 C 115.651 79.331, 110.973 77.016, 105.500 74.819 L 103.500 74.016 106.857 76.920 M 42.102 99.311 L 42 102.123 37.500 101.448 L 33 100.773 33 101.758 L 33 102.742 38.117 103.421 C 44.235 104.233, 44.052 104.360, 43.026 99.993 L 42.205 96.500 42.102 99.311 M 128 101.404 C 128 102.241, 128.900 105.209, 130 108 C 131.100 110.791, 132 113.957, 132 115.037 L 132 117 133 117 L 134 117 134 115.605 C 134 113.179, 129.988 101.111, 128.973 100.483 L 128 99.882 128 101.404 M 53.889 104.793 C 54.506 105.945, 55.458 107.165, 56.005 107.503 L 57 108.118 57 107.059 C 57 106.477, 57.375 106, 57.833 106 L 58.667 106 58.667 109.504 L 58.667 113.009 60.002 115.504 L 61.338 118 68.039 118 L 74.740 118 75.259 113.750 C 75.545 111.412, 76.064 108.810, 76.413 107.967 L 77.047 106.435 71.774 106.369 C 66.661 106.304, 58.447 104.890, 54.634 103.418 L 52.767 102.697 53.889 104.793 M 19 120.941 C 19 122.009, 19.416 123.139, 19.924 123.453 C 20.431 123.767, 21.611 126.381, 22.546 129.262 C 23.890 133.406, 29.123 144.739, 30.699 146.917 C 31.547 148.090, 31.938 145.941, 31.382 143.160 L 30.750 140 29.498 140 L 28.247 140 24.906 129.500 L 21.565 119 20.282 119 L 19 119 19 120.941 M 74.688 120.646 C 73.687 121.646, 73.874 125.261, 75.015 127 L 76 128.500 76.926 127.061 L 77.851 125.623 77.660 123.140 L 77.469 120.656 76.422 120.307 C 75.846 120.115, 75.066 120.268, 74.688 120.646 M 36 132.673 L 36 135 37.418 135 C 38.198 135, 39.548 134.727, 40.418 134.393 L 42 133.786 42 132.507 L 42 131.227 39 130.787 L 36 130.346 36 132.673 M 56.311 134.082 L 56.863 136.193 56.327 137.591 L 55.790 138.989 54.956 138.473 C 54.497 138.189, 52.319 138.245, 50.116 138.597 L 46.110 139.238 49.403 142.369 C 51.213 144.091, 52.876 146.058, 53.098 146.740 L 53.500 147.979 57.276 146.935 L 61.051 145.892 60.519 145.031 L 59.988 144.171 61.244 143.748 L 62.500 143.325 61.259 141.821 L 60.017 140.316 60.679 139.654 L 61.341 138.992 59.097 136.604 L 56.854 134.215 58.126 133.791 L 59.399 133.367 57.579 132.669 L 55.759 131.970 56.311 134.082 M 110.040 133.548 L 111.429 135.221 111.239 141.612 L 111.050 148.003 109.545 150.913 C 107.709 154.463, 103.943 157.530, 99.403 159.171 L 96 160.402 96 161.576 C 96 162.222, 95.760 164.269, 95.467 166.125 L 94.935 169.500 96.217 166.142 L 97.500 162.785 103.437 160.386 L 109.373 157.986 110.044 159.072 L 110.716 160.158 111.289 155.885 L 111.862 151.613 114.058 149.956 L 116.254 148.300 114.067 147.728 L 111.880 147.156 112.561 143.328 C 112.936 141.223, 113.603 139.108, 114.043 138.628 L 114.844 137.756 114.362 136.502 L 113.881 135.247 117.962 135.993 L 122.043 136.739 122.538 135.939 L 123.033 135.138 122.259 134.660 C 121.833 134.397, 119.688 133.890, 117.492 133.533 C 115.297 133.177, 112.409 132.657, 111.075 132.380 L 108.651 131.874 110.040 133.548 M 71 134.906 L 71 135.723 68.500 135.245 L 66 134.767 66 136.261 C 66 137.083, 66.670 138.311, 67.488 138.990 L 68.976 140.225 69.595 138.613 C 69.936 137.726, 70.625 137, 71.127 137 L 72.041 137 70 141 L 67.959 145 66.480 145 L 65 145 65 140.417 L 65 135.833 63.750 136.292 L 62.500 136.750 62.957 138.125 C 63.208 138.881, 63.433 141.188, 63.457 143.250 L 63.500 147 66.500 147.118 C 68.150 147.184, 69.950 147.141, 70.500 147.023 C 71.050 146.906, 72.951 146.763, 74.725 146.707 L 77.951 146.605 80.290 148.803 C 83.407 151.731, 84.211 151.553, 86.099 147.517 L 87.699 144.098 86.224 143.533 L 84.750 142.967 85.370 139.090 L 85.990 135.213 82.389 136.025 L 78.789 136.837 74.895 135.463 L 71 134.089 71 134.906 M 68.635 155.669 C 69.342 160.724, 69.785 162.045, 70.722 161.891 C 71.150 161.821, 71.725 161.851, 72 161.958 C 72.275 162.065, 73.385 162.318, 74.466 162.520 L 76.432 162.886 77.780 161.767 L 79.129 160.648 78.506 158.169 L 77.884 155.690 79.163 154.899 L 80.442 154.109 79.850 153.517 L 79.258 152.925 76.629 154.123 C 75.183 154.782, 74 155.699, 74 156.161 C 74 156.622, 73.540 157, 72.977 157 L 71.954 157 73.592 154.500 L 75.230 152 74.315 152 C 73.812 152, 72.879 152.521, 72.242 153.158 L 71.085 154.315 69.592 153.076 L 68.099 151.838 68.635 155.669 M 64.093 170 L 63.859 175.500 63 173.500 L 62.141 171.500 62.070 174.309 L 62 177.118 61 176.500 L 60 175.882 60 176.780 C 60 177.275, 58.976 178.146, 57.724 178.716 L 55.448 179.753 53.526 183.322 L 51.604 186.891 52.711 189.196 C 54.388 192.685, 55.335 195.415, 55.159 196.250 L 55 197 56.480 197 L 57.959 197 59.973 200.948 L 61.987 204.895 66.607 208.073 L 71.226 211.252 71.962 210.062 L 72.697 208.872 76.932 208.570 L 81.166 208.269 81.660 209.556 L 82.154 210.844 81.098 212.817 L 80.042 214.790 81.466 215.972 L 82.890 217.154 85.185 216.827 L 87.480 216.500 87.789 214.876 L 88.098 213.252 85.019 210.173 L 81.940 207.093 83.643 205.104 L 85.346 203.115 87.144 204.077 L 88.942 205.039 88.375 207.876 L 87.808 210.712 89.404 211.325 L 91 211.937 91 213.969 L 91 216 93.965 216 L 96.930 216 97.965 214.066 C 98.534 213.002, 99 210.822, 99 209.221 L 99 206.310 97.124 204.612 L 95.247 202.914 94.655 204.457 C 94.329 205.306, 93.699 206, 93.255 206 L 92.447 206 92.833 201.950 L 93.220 197.900 91.360 195.817 L 89.500 193.734 91.692 194.416 L 93.885 195.098 93.508 190.474 L 93.131 185.849 91.640 183.573 L 90.149 181.298 89.824 177.899 L 89.500 174.500 88.500 174.710 L 87.500 174.921 87.180 176.960 C 86.839 179.138, 86.204 179.417, 84.319 178.218 L 83.138 177.467 82.744 172.984 L 82.349 168.500 82.175 173.013 L 82 177.526 79.750 178.513 L 77.500 179.500 77.497 186.049 L 77.494 192.597 75.747 195.263 L 74 197.930 74 199.850 L 74 201.770 71.454 203.438 L 68.909 205.106 67.086 204.527 C 64.593 203.736, 62.395 201.032, 61.633 197.820 L 60.997 195.140 63.248 194.820 L 65.500 194.500 65.800 191.915 L 66.101 189.330 63.800 189.415 L 61.500 189.500 61.208 187 L 60.917 184.500 63.208 179.999 L 65.500 175.498 64.913 169.999 L 64.326 164.500 64.093 170 M 117.105 167.388 L 114.842 169.797 112.171 170.310 L 109.500 170.823 108.500 170.070 L 107.500 169.318 105 169.970 L 102.500 170.623 104.500 171.704 L 106.500 172.785 112 173.143 L 117.500 173.500 117.223 171.825 L 116.947 170.151 118.907 168.777 L 120.868 167.404 120.118 166.191 L 119.369 164.979 117.105 167.388 M 122.469 167.500 C 122.211 168.325, 121.810 169.620, 121.578 170.378 L 121.156 171.756 122.278 172.878 C 122.895 173.495, 124.158 174, 125.083 174 L 126.767 174 127.358 171.750 L 127.949 169.500 127.031 169.185 L 126.112 168.871 126.663 167.435 L 127.214 166 125.076 166 L 122.937 166 122.469 167.500 M 66 172.399 L 66 174.799 70.500 175.157 C 72.975 175.353, 75 175.460, 75 175.393 C 75 175.017, 67.276 170, 66.696 170 L 66 170 66 172.399 M 107 185.941 C 107 186.459, 107.450 187.160, 108 187.500 C 108.550 187.840, 109 188.530, 109 189.034 L 109 189.950 105.957 189.341 L 102.913 188.733 100.457 191.041 L 98 193.349 98 195.974 L 98 198.600 99.200 199.800 L 100.400 201 102.637 201 L 104.874 201 104.308 204.492 L 103.741 207.983 104.940 209.427 L 106.138 210.871 109.033 211.507 L 111.929 212.143 114.714 210.803 L 117.500 209.462 117.565 205.482 L 117.629 201.502 119.565 201.144 C 120.629 200.946, 122.063 200.328, 122.750 199.770 L 124 198.755 124 196.100 L 124 193.445 122.376 191.127 L 120.753 188.809 118.126 189.263 C 116.682 189.513, 114.601 190.097, 113.503 190.560 L 111.505 191.404 113.253 188.737 C 115.628 185.111, 115.561 185, 111 185 L 107 185 107 185.941 M 69.872 190.250 C 69.802 190.387, 69.639 191.512, 69.509 192.750 L 69.273 195 71.578 195 L 73.882 195 74.594 193.848 L 75.306 192.697 73.462 191.348 C 71.772 190.113, 70.190 189.629, 69.872 190.250 M 18.456 192.929 L 19.030 193.857 16.765 194.179 L 14.500 194.500 14.180 196.750 L 13.861 199 15.430 199 L 17 199 17 201.566 L 17 204.133 19.741 203.816 L 22.483 203.500 22.858 201.525 C 23.064 200.439, 23.880 199.077, 24.671 198.499 L 26.109 197.447 25.447 195.724 L 24.786 194 22.893 194 L 21 194 21 193 L 21 192 19.441 192 L 17.882 192 18.456 192.929 M 134 193 L 134 194 132.700 194 C 131.985 194, 130.895 194.505, 130.278 195.122 L 129.156 196.244 129.685 197.622 L 130.214 199 131.436 199 L 132.659 199 132.579 201.250 L 132.500 203.500 134.887 203.837 L 137.274 204.175 138.126 202.837 L 138.979 201.500 138.521 200.250 L 138.063 199 139.531 199 L 141 199 141 196.500 L 141 194 138.441 194 L 135.882 194 136.500 193 L 137.118 192 135.559 192 L 134 192 134 193 M 15.557 209.223 C 14.701 210.445, 14 212.245, 14 213.223 L 14 215 16 217 L 18 219 21.250 218.840 L 24.500 218.680 21.355 218.284 L 18.209 217.889 16.422 215.914 L 14.635 213.939 15.587 211.220 L 16.539 208.500 20.520 207.892 L 24.500 207.284 20.807 207.142 L 17.113 207 15.557 209.223 M 131.571 208.571 L 130 210.143 130 212.571 L 130 215 132 217 L 134 219 137 219 L 140 219 139.811 212.750 L 139.622 206.500 139.261 212.250 L 138.900 218 136.522 218 L 134.143 218 132.517 216.374 L 130.891 214.749 131.196 212.147 L 131.500 209.546 134 208.288 L 136.500 207.029 134.821 207.015 L 133.143 207 131.571 208.571" stroke="none" fill="#121212" fill-rule="evenodd"/></svg>